<svg id="Layer_1" enable-background="new 0 0 495.002 495.002" height="512" viewBox="0 0 495.002 495.002" width="512" xmlns="http://www.w3.org/2000/svg"><g><path d="m439.501 87v174.12c0 13.79-7.3 26.85-19.04 34.07l-84.91 52.25c-3.78 2.33-8.13 3.56-12.58 3.56h-198.94c-4.45 0-8.8-1.23-12.58-3.56l-84.91-52.26c-11.74-7.21-19.04-20.27-19.04-34.06v-174.12c0-22.06 17.94-40 40-40h352c22.06 0 40 17.94 40 40z" fill="#e48c9b"/><path d="m439.501 87v174.12c0 13.79-7.3 26.85-19.04 34.07-67.243 41.374-49.049 30.178-84.91 52.25-3.78 2.33-8.13 3.56-12.58 3.56h-40c4.45 0 8.8-1.23 12.58-3.56 82.141-50.541 67.425-41.484 84.91-52.25 11.74-7.22 19.04-20.28 19.04-34.07v-174.12c0-22.06-17.94-40-40-40h40c22.06 0 40 17.94 40 40z" fill="#cc5b6f"/><path d="m367.501 151v172.31c0 2.78-1.44 5.36-3.81 6.81l-28.14 17.32c-3.78 2.33-8.13 3.56-12.58 3.56h-198.94c-4.45 0-8.8-1.23-12.58-3.56l-28.14-17.32c-2.37-1.45-3.81-4.03-3.81-6.81v-172.31c0-4.42 3.58-8 8-8h272c4.42 0 8 3.58 8 8z" fill="#edebfd"/><path d="m351.501 312c0 16.446.742 20.727-2.88 27.4-12.998 7.996-17.091 11.6-25.65 11.6h-178.31c-9.91-2.95-17.16-12.15-17.16-23v-16c0-13.23 10.77-24 24-24h176c13.23 0 24 10.77 24 24z" fill="#edebfd"/><path d="m367.501 303.17v20.14c0 2.78-1.44 5.36-3.81 6.81l-28.14 17.32c-3.78 2.33-8.13 3.56-12.58 3.56h-40c4.45 0 8.8-1.23 12.58-3.56z" fill="#d2d2fc"/><circle cx="399.501" cy="88" fill="#ebb19c" r="88"/><path d="m487.501 88c0 48.64-39.35 88-88 88-4.07 0-8.08-.28-12-.82 42.96-5.83 76-42.61 76-87.18 0-44.83-33.27-81.36-76.01-87.18 3.93-.54 7.94-.82 12.01-.82 48.35 0 88 39.06 88 88z" fill="#e58d72"/><path d="m479.836 75.002c-14.822-.921-28.9-6.413-40.41-15.613l22.3-22.3c3.125-3.125 3.125-8.189 0-11.314-3.124-3.123-8.189-3.123-11.313 0l-22.3 22.3c-9.2-11.509-14.692-25.588-15.614-40.411-.273-4.409-4.079-7.761-8.48-7.488-4.41.273-7.763 4.071-7.488 8.48 1.163 18.723 8.27 36.486 20.198 50.803l-17.227 17.227-50.912-50.912c-3.124-3.123-8.189-3.123-11.313 0-3.125 3.125-3.125 8.189 0 11.314l50.91 50.912-17.227 17.227c-14.317-11.928-32.08-19.036-50.802-20.198-4.405-.275-8.207 3.079-8.481 7.488-.273 4.41 3.079 8.207 7.489 8.48 14.822.921 28.9 6.413 40.41 15.613l-22.3 22.3c-5.054 5.055-1.407 13.657 5.657 13.657 2.047 0 4.095-.781 5.657-2.343l22.3-22.3c9.2 11.509 14.692 25.588 15.614 40.411.263 4.241 3.785 7.504 7.977 7.504 4.651 0 8.277-3.918 7.992-8.496-1.163-18.723-8.27-36.486-20.198-50.803l17.227-17.227 50.912 50.912c1.562 1.562 3.609 2.343 5.657 2.343 7.064 0 10.711-8.602 5.657-13.657l-50.913-50.911 17.227-17.227c14.317 11.928 32.08 19.036 50.802 20.198 4.392.278 8.206-3.067 8.481-7.488.273-4.411-3.079-8.208-7.489-8.481z" fill="#e58d72"/><path d="m312.816 335.108c-4.355-.727-8.48 2.218-9.207 6.576l-6.885 41.316h-35.433l2.198-39.557c.245-4.411-3.132-8.186-7.544-8.431-4.406-.263-8.187 3.131-8.432 7.544l-2.247 40.444h-43.531l-2.247-40.443c-.245-4.412-4.021-7.793-8.432-7.544-4.412.245-7.789 4.02-7.544 8.431l2.199 39.556h-35.433l-6.886-41.315c-.727-4.358-4.85-7.295-9.207-6.576-4.358.727-7.302 4.849-6.576 9.207l24 144c.652 3.913 4.042 6.686 7.881 6.686 4.964 0 8.712-4.45 7.901-9.316l-5.113-30.686h27.433l1.802 32.443c.237 4.261 3.766 7.557 7.98 7.557 4.609 0 8.25-3.865 7.995-8.443l-1.753-31.557h35.531l-1.753 31.557c-.245 4.411 3.132 8.186 7.544 8.431 4.355.253 8.184-3.089 8.432-7.544l1.802-32.444h27.433l-5.114 30.685c-.727 4.358 2.218 8.48 6.576 9.207 4.348.725 8.479-2.209 9.207-6.576l24-144c.725-4.359-2.219-8.481-6.577-9.208zm-153.205 103.892-6.667-40h33.655l2.222 40zm45.236 0-2.222-40h41.753l-2.222 40zm53.333 0 2.222-40h33.655l-6.667 40z" fill="#595965"/><path d="m351.501 312c0 16.446.742 20.727-2.88 27.4-12.998 7.996-17.091 11.6-25.65 11.6h-178.31c-9.91-2.95-17.16-12.15-17.16-23v-16c0-13.23 10.77-24 24-24h176c13.23 0 24 10.77 24 24z" fill="#d2d2fc"/><path d="m335.501 311v16c0 13.23-10.77 24-24 24h-176c-13.23 0-24-10.77-24-24v-16c0-13.23 10.77-24 24-24h176c13.23 0 24 10.77 24 24z" fill="#e48c9b"/><path d="m311.501 287h-40c13.23 0 24 10.77 24 24v16c0 13.23-10.77 24-24 24h40c13.23 0 24-10.77 24-24v-16c0-13.23-10.77-24-24-24z" fill="#cc5b6f"/></g></svg>